<?xml version="1.0" standalone="no"?>
<!DOCTYPE svg PUBLIC "-//W3C//DTD SVG 20010904//EN"
 "http://www.w3.org/TR/2001/REC-SVG-20010904/DTD/svg10.dtd">
<svg version="1.0" xmlns="http://www.w3.org/2000/svg"
 width="512.000000pt" height="512.000000pt" viewBox="0 0 512.000000 512.000000"
 preserveAspectRatio="xMidYMid meet">

<g transform="translate(0.000000,512.000000) scale(0.100000,-0.100000)"
fill="rgb(221, 60, 60)" stroke="none">
<path d="M1917 5104 c-95 -17 -207 -62 -290 -117 -66 -43 -1272 -1235 -1418
-1402 -127 -143 -193 -295 -206 -470 -6 -94 39 -547 64 -638 42 -154 176 -276
339 -310 51 -11 54 -13 54 -42 0 -16 7 -75 15 -130 113 -762 588 -1414 1277
-1751 506 -249 1065 -307 1603 -169 186 48 289 86 460 170 379 186 678 450
920 810 82 123 211 384 259 525 286 846 69 1780 -559 2405 -370 369 -868 611
-1369 667 l-104 12 -12 55 c-37 165 -160 297 -315 335 -68 17 -516 66 -590 65
-28 0 -85 -7 -128 -15z m460 -229 c247 -27 277 -38 334 -126 29 -45 33 -60 33
-118 0 -43 -6 -78 -17 -101 -10 -20 -470 -487 -1070 -1086 -981 -980 -1055
-1052 -1099 -1064 -125 -33 -255 39 -288 160 -5 19 -21 146 -35 282 -21 204
-24 258 -15 313 13 81 34 146 68 205 36 65 1410 1441 1482 1484 99 61 212 87
330 79 36 -3 161 -15 277 -28z m712 -441 c600 -87 1142 -433 1473 -939 246
-375 374 -870 338 -1310 -34 -436 -192 -839 -460 -1175 -84 -105 -270 -288
-370 -362 -569 -426 -1288 -545 -1960 -322 -713 235 -1256 848 -1405 1587 -29
145 -43 287 -27 287 5 0 33 16 61 35 34 22 53 30 56 22 2 -7 6 -54 9 -105 21
-329 170 -718 389 -1012 81 -109 249 -280 353 -363 216 -170 493 -306 749
-370 921 -230 1874 216 2281 1068 100 209 158 413 185 645 15 130 6 419 -16
545 -125 706 -595 1277 -1257 1531 -173 66 -445 124 -583 124 -30 0 -55 2 -55
4 0 2 16 27 35 56 19 29 35 56 35 61 0 13 48 11 169 -7z m36 -354 c346 -69
665 -240 913 -489 153 -154 252 -294 346 -491 222 -466 233 -998 31 -1466
-240 -554 -731 -942 -1330 -1049 -128 -23 -368 -30 -495 -16 -698 81 -1278
553 -1495 1216 -57 173 -77 297 -82 510 l-5 190 261 260 c260 259 261 260 304
260 77 1 125 52 114 121 -5 29 6 42 161 197 l167 166 41 -11 c37 -10 45 -9 77
11 43 26 61 74 46 124 -9 32 -8 33 224 265 l232 234 190 -5 c140 -3 219 -10
300 -27z"/>
<path d="M1845 4594 c-65 -17 -93 -31 -133 -67 -59 -55 -84 -107 -90 -190 -4
-60 -2 -73 27 -131 52 -106 147 -162 260 -154 80 6 134 32 185 88 92 102 97
242 13 352 -54 71 -184 121 -262 102z m95 -229 c20 -24 8 -78 -22 -94 -23 -13
-30 -13 -52 -1 -15 7 -29 24 -32 36 -15 60 67 105 106 59z"/>
<path d="M720 3491 c-89 -29 -161 -102 -186 -187 -38 -132 19 -260 146 -325
35 -18 60 -23 115 -23 84 1 128 18 189 74 138 127 103 355 -68 442 -44 23
-153 33 -196 19z m115 -226 c30 -29 31 -45 7 -75 -21 -26 -66 -30 -89 -7 -23
23 -19 68 7 89 30 24 46 23 75 -7z"/>
<path d="M2692 3855 c-39 -17 -65 -69 -56 -115 16 -77 119 -107 175 -51 82 82
-12 214 -119 166z"/>
<path d="M3391 3722 c-41 -6 -70 -32 -83 -73 -15 -53 6 -99 57 -123 46 -22 87
-14 120 26 62 74 1 185 -94 170z"/>
<path d="M2586 3384 c-391 -77 -702 -355 -820 -731 -35 -112 -46 -188 -46
-319 0 -728 714 -1241 1404 -1010 338 114 596 390 693 743 25 89 27 114 27
268 0 152 -3 180 -27 268 -109 406 -440 711 -846 782 -102 18 -292 18 -385 -1z
m347 -209 c190 -33 344 -119 486 -270 57 -63 83 -101 126 -189 29 -61 61 -142
71 -181 25 -95 25 -305 1 -393 -48 -179 -127 -313 -254 -432 -70 -65 -107 -90
-197 -134 -152 -74 -219 -90 -386 -90 -111 0 -149 4 -215 22 -377 108 -636
445 -635 824 3 536 478 935 1003 843z"/>
<path d="M2680 3058 c-402 -57 -684 -441 -616 -837 57 -330 311 -573 638 -610
430 -49 808 286 809 716 1 211 -64 373 -206 518 -113 115 -242 182 -401 210
-95 17 -128 17 -224 3z m241 -224 c225 -66 379 -268 379 -497 0 -138 -53 -268
-148 -363 -175 -175 -430 -204 -646 -74 -145 87 -236 256 -236 434 1 99 12
153 51 232 86 174 263 283 460 284 50 0 108 -7 140 -16z"/>
<path d="M3883 3270 c-43 -26 -56 -54 -50 -104 11 -82 101 -115 166 -60 57 48
47 135 -19 169 -38 20 -58 19 -97 -5z"/>
<path d="M4155 2646 c-39 -17 -55 -37 -62 -79 -6 -40 17 -91 48 -108 30 -16
85 -14 113 4 101 67 12 232 -99 183z"/>
<path d="M1294 2536 c-46 -46 -48 -104 -5 -147 56 -55 159 -26 176 50 10 45
-18 99 -59 116 -53 22 -75 18 -112 -19z"/>
<path d="M4094 1965 c-123 -52 -55 -227 74 -193 36 10 72 57 72 96 0 75 -78
127 -146 97z"/>
<path d="M1397 1864 c-33 -33 -41 -57 -33 -99 11 -59 73 -94 131 -75 115 38
90 199 -31 200 -31 0 -48 -6 -67 -26z"/>
<path d="M3691 1369 c-82 -81 15 -218 118 -165 67 35 78 122 20 170 -44 38
-98 36 -138 -5z"/>
<path d="M1799 1311 c-80 -81 9 -212 114 -168 43 18 60 47 60 101 0 87 -111
130 -174 67z"/>
<path d="M3131 1057 c-42 -15 -74 -69 -66 -112 15 -82 117 -115 176 -56 40 40
41 98 2 140 -34 36 -66 44 -112 28z"/>
<path d="M2424 1025 c-47 -32 -56 -122 -16 -159 37 -33 78 -39 119 -19 47 23
65 56 59 108 -6 54 -43 85 -99 85 -24 0 -52 -7 -63 -15z"/>
</g>
</svg>
